<?xml version="1.0" encoding="UTF-8"?>
<svg version="1.1" xmlns="http://www.w3.org/2000/svg" width="251" height="73">
    <path d="M0 0 C3.1575892 1.36225821 6.09539402 3.01695697 9.0625 4.75 C10.24682617 5.41515625 10.24682617 5.41515625 11.45507812 6.09375 C13.67094555 7.35677586 15.85718159 8.61626572 18 10 C18.89968506 10.57645264 19.79937012 11.15290527 20.72631836 11.74682617 C23 14 23 14 23.61523438 17.06860352 C23.60814453 18.24350342 23.60105469 19.41840332 23.59375 20.62890625 C23.59117188 21.91087891 23.58859375 23.19285156 23.5859375 24.51367188 C23.57143555 25.17810303 23.55693359 25.84253418 23.54199219 26.52709961 C23.50005026 28.56006389 23.5009307 30.58972194 23.5078125 32.62304688 C23.40909406 42.43072386 23.40909406 42.43072386 21.76293945 44.72143555 C17.90731115 47.51771382 13.80211071 49.85888882 9.6875 52.25 C8.74970703 52.8171875 7.81191406 53.384375 6.84570312 53.96875 C5.93111328 54.49984375 5.01652344 55.0309375 4.07421875 55.578125 C3.24494873 56.06700195 2.41567871 56.55587891 1.5612793 57.05957031 C-2.59468035 58.58552175 -5.65948784 57.61175619 -9.59301758 55.81665039 C-10.43501709 55.33188232 -11.2770166 54.84711426 -12.14453125 54.34765625 C-13.06814453 53.81849609 -13.99175781 53.28933594 -14.94335938 52.74414062 C-15.89017578 52.18919922 -16.83699219 51.63425781 -17.8125 51.0625 C-18.77865234 50.51142578 -19.74480469 49.96035156 -20.74023438 49.39257812 C-27.86364233 45.27271534 -27.86364233 45.27271534 -29 43 C-29.28009999 38.89635792 -29.31353855 34.79111678 -29.35009766 30.67871094 C-29.3666579 29.3129777 -29.39395011 27.94733118 -29.43212891 26.58203125 C-29.48696324 24.60990239 -29.50564662 22.63687332 -29.5234375 20.6640625 C-29.54325684 19.48279785 -29.56307617 18.3015332 -29.58349609 17.08447266 C-29 14 -29 14 -26.73071289 11.74462891 C-25.82957764 11.16890137 -24.92844238 10.59317383 -24 10 C-23.29883057 9.5472168 -22.59766113 9.09443359 -21.87524414 8.62792969 C-19.61167451 7.3217699 -17.34111683 6.02974561 -15.0625 4.75 C-13.88397461 4.06164062 -13.88397461 4.06164062 -12.68164062 3.359375 C-4.96153846 -0.98197115 -4.96153846 -0.98197115 0 0 Z " fill="#253EFD" transform="translate(38,10)"/>
    <path d="M0 0 C2.59693105 1.12620732 4.96965046 2.51360446 7.375 4 C8.01566406 4.3815625 8.65632813 4.763125 9.31640625 5.15625 C10.88462755 6.09250152 12.44332645 7.04467157 14 8 C14 12 14 12 11.8125 14.8125 C9 17 9 17 6.375 16.875 C5.59125 16.58625 4.8075 16.2975 4 16 C-0.98766098 14.33744634 -5.98368448 14.16717403 -10.875 16.1875 C-14.06419198 18.90769316 -15.81375528 21.00548835 -16.21484375 25.30078125 C-16.26998407 29.3382783 -16.06267467 32.75347962 -15.0625 36.6875 C-14.98837934 40.61589487 -15.59776305 41.20639014 -18.1875 44 C-20.04296875 45.8125 -20.04296875 45.8125 -22 47 C-24.41519086 46.85278837 -25.6415862 46.25852168 -27.5925293 44.85131836 C-30.53970093 40.97475244 -29.51682645 35.28634582 -29.50097656 30.60327148 C-29.50000453 28.5719612 -29.5416138 26.5444361 -29.5859375 24.51367188 C-29.58851562 23.23169922 -29.59109375 21.94972656 -29.59375 20.62890625 C-29.60083984 19.45400635 -29.60792969 18.27910645 -29.61523438 17.06860352 C-29 14 -29 14 -26.72631836 11.74682617 C-25.8266333 11.17037354 -24.92694824 10.5939209 -24 10 C-23.29883057 9.5472168 -22.59766113 9.09443359 -21.87524414 8.62792969 C-19.61167451 7.3217699 -17.34111683 6.02974561 -15.0625 4.75 C-13.88397461 4.06164062 -13.88397461 4.06164062 -12.68164062 3.359375 C-5.02086209 -0.94861092 -5.02086209 -0.94861092 0 0 Z " fill="#060C36" transform="translate(38,10)"/>
    <path d="M0 0 C2.49985167 2.07130567 4.37035658 4.12043568 6.1875 6.8125 C6.1875 7.8025 6.1875 8.7925 6.1875 9.8125 C4.90875 9.874375 3.63 9.93625 2.3125 10 C1.59320313 10.03480469 0.87390625 10.06960937 0.1328125 10.10546875 C-0.50914063 10.00878906 -1.15109375 9.91210938 -1.8125 9.8125 C-2.4725 8.8225 -3.1325 7.8325 -3.8125 6.8125 C-6.3125 6.39583333 -6.3125 6.39583333 -8.8125 6.8125 C-10.99679262 8.58959032 -10.99679262 8.58959032 -11.078125 10.87109375 C-11.07296875 11.65613281 -11.0678125 12.44117188 -11.0625 13.25 C-11.06765625 14.03246094 -11.0728125 14.81492187 -11.078125 15.62109375 C-10.94426831 18.10294107 -10.94426831 18.10294107 -8.8125 20.8125 C-6.22869823 21.06280977 -6.22869823 21.06280977 -3.8125 20.8125 C-3.1525 19.4925 -2.4925 18.1725 -1.8125 16.8125 C0.8275 16.8125 3.4675 16.8125 6.1875 16.8125 C6.00375695 20.76297551 5.37996223 22.57322264 2.875 25.6875 C-1.04574643 28.61144649 -5.22309135 28.50651899 -9.9609375 28.30078125 C-14.36267309 27.5470594 -15.93908933 26.21522317 -18.8125 22.8125 C-21.61044752 18.36121986 -21.47349503 12.90460985 -20.8125 7.8125 C-16.58271836 -0.80372187 -8.85943037 -3.74064838 0 0 Z " fill="#EBEDF8" transform="translate(41.8125,25.1875)"/>
    <path d="M0 0 C2.31 0 4.62 0 7 0 C7 2.97 7 5.94 7 9 C7.66 8.67 8.32 8.34 9 8 C15.47058824 7.64705882 15.47058824 7.64705882 19 10 C19.90238747 12.70716242 20.11851302 14.23776768 20.09765625 17.01171875 C20.09443359 17.76904297 20.09121094 18.52636719 20.08789062 19.30664062 C20.07951172 20.09232422 20.07113281 20.87800781 20.0625 21.6875 C20.05798828 22.48478516 20.05347656 23.28207031 20.04882812 24.10351562 C20.0370585 26.06904257 20.01912348 28.03453085 20 30 C18.02 30 16.04 30 14 30 C13.67 25.05 13.34 20.1 13 15 C12.01 14.67 11.02 14.34 10 14 C9.01 14.495 9.01 14.495 8 15 C7.68758629 17.54941373 7.48696579 20.00361513 7.375 22.5625 C7.33632812 23.27341797 7.29765625 23.98433594 7.2578125 24.71679688 C7.16328217 26.47742425 7.08054183 28.23867728 7 30 C5.00045254 30.04254356 2.99958364 30.04080783 1 30 C0 29 0 29 -0.11352539 26.22436523 C-0.10828857 25.01466064 -0.10305176 23.80495605 -0.09765625 22.55859375 C-0.09443359 21.25341797 -0.09121094 19.94824219 -0.08789062 18.60351562 C-0.07953401 17.2148431 -0.07106905 15.82617123 -0.0625 14.4375 C-0.05748666 13.04492344 -0.05292347 11.65234519 -0.04882812 10.25976562 C-0.03699434 6.8398013 -0.0205088 3.41992156 0 0 Z " fill="#223CFE" transform="translate(98,22)"/>
    <path d="M0 0 C2.625 1.8125 2.625 1.8125 3.5 4.5 C3.54125 5.263125 3.5825 6.02625 3.625 6.8125 C1.975 7.4725 0.325 8.1325 -1.375 8.8125 C-1.725625 8.296875 -2.07625 7.78125 -2.4375 7.25 C-4.45930174 5.43125799 -4.45930174 5.43125799 -8 6 C-9.670625 6.4021875 -9.670625 6.4021875 -11.375 6.8125 C-12.54483345 9.1521669 -12.5411241 10.64641527 -12.5625 13.25 C-12.57667969 14.03246094 -12.59085937 14.81492187 -12.60546875 15.62109375 C-12.51586064 18.10455987 -12.51586064 18.10455987 -10.375 20.8125 C-6.79142759 21.06265873 -6.79142759 21.06265873 -3.375 20.8125 C-2.715 19.4925 -2.055 18.1725 -1.375 16.8125 C0.605 17.4725 2.585 18.1325 4.625 18.8125 C3.79709495 22.1993843 3.17449495 24.31295913 0.5625 26.6875 C-4.48810764 28.62177527 -9.26878344 28.72824633 -14.25 26.5625 C-17.43950003 23.93585292 -19.06739865 21.73530404 -20.375 17.8125 C-20.77268988 11.84715173 -20.26327329 8.07328349 -17.375 2.8125 C-12.31575923 -1.93053822 -6.40495574 -2.25359554 0 0 Z " fill="#223BFE" transform="translate(91.375,24.1875)"/>
    <path d="M0 0 C1.98 0 3.96 0 6 0 C7.65 3.63 9.3 7.26 11 11 C12.32 7.37 13.64 3.74 15 0 C17.31 0 19.62 0 22 0 C20.325419 6.49099491 18.04426549 12.71955897 15.5625 18.9375 C15.27431396 19.68314209 14.98612793 20.42878418 14.68920898 21.19702148 C11.88405681 28.08396433 11.88405681 28.08396433 8 30 C5.26286305 30.37460816 2.77974416 30.13898721 0 30 C0 28.02 0 26.04 0 24 C2.31 24 4.62 24 7 24 C4.36341588 15.10718467 4.36341588 15.10718467 1.25 6.375 C0 3 0 3 0 0 Z " fill="#213CFE" transform="translate(197,30)"/>
    <path d="M0 0 C2.7561902 2.25277646 3.88287129 4.03694169 4.31640625 7.6015625 C4.39761719 8.59929688 4.47882813 9.59703125 4.5625 10.625 C4.68818359 12.12933594 4.68818359 12.12933594 4.81640625 13.6640625 C4.87699219 14.43492188 4.93757813 15.20578125 5 16 C5.33 16 5.66 16 6 16 C6 17.98 6 19.96 6 22 C0.25 22.125 0.25 22.125 -2 21 C-2.66 21.33 -3.32 21.66 -4 22 C-10.18035883 22.44948064 -10.18035883 22.44948064 -12.9375 20.9375 C-14.63335287 17.84506242 -14.43060657 15.44485259 -14 12 C-11.06828386 8.48194063 -7.37834373 8.42099459 -3 8 C-3 7.01 -3 6.02 -3 5 C-7.455 6.485 -7.455 6.485 -12 8 C-12.66 6.35 -13.32 4.7 -14 3 C-9.70334873 -0.3264397 -5.27851034 -1.00825478 0 0 Z M-8 14 C-7.67 14.99 -7.34 15.98 -7 17 C-5.68 16.67 -4.36 16.34 -3 16 C-2.67 14.68 -2.34 13.36 -2 12 C-4.46278801 12 -5.85224119 12.85452863 -8 14 Z " fill="#213BFE" transform="translate(135,30)"/>
    <path d="M0 0 C3 2 3 2 5 5 C5.39956124 7.80730687 5.24224238 10.14153994 5 13 C-0.94 13.495 -0.94 13.495 -7 14 C-7 14.66 -7 15.32 -7 16 C-3.87709365 15.51421457 -1.00419641 15.0013988 2 14 C2.99 14.66 3.98 15.32 5 16 C3.63016497 19.16115776 3.0109362 19.9927092 0 22 C-8.52267487 22.54112221 -8.52267487 22.54112221 -12 20 C-14.27947698 16.58078453 -14.32513105 15.09689823 -14.375 11.0625 C-14.40335938 10.02222656 -14.43171875 8.98195313 -14.4609375 7.91015625 C-13.89437664 4.33314062 -12.78460479 3.23078934 -10 1 C-6.76823243 -0.61588379 -3.49384717 -0.57451407 0 0 Z M-6 5 C-6.99 6.485 -6.99 6.485 -8 8 C-5.69 8 -3.38 8 -1 8 C-1.33 7.01 -1.66 6.02 -2 5 C-3.32 5 -4.64 5 -6 5 Z " fill="#223CFE" transform="translate(157,30)"/>
    <path d="M0 0 C2.31 0 4.62 0 7 0 C8.32 3.96 9.64 7.92 11 12 C12.65 8.04 14.3 4.08 16 0 C17.98 0 19.96 0 22 0 C20.56006454 7.72329019 17.94467554 14.7282249 15 22 C12.69 22 10.38 22 8 22 C7.51080078 20.82244141 7.51080078 20.82244141 7.01171875 19.62109375 C6.35623047 18.04521484 6.35623047 18.04521484 5.6875 16.4375 C5.23375 15.344375 4.78 14.25125 4.3125 13.125 C3.29975659 10.71370617 2.25712988 8.32359743 1.1875 5.9375 C0 3 0 3 0 0 Z " fill="#213CFE" transform="translate(163,30)"/>
    <path d="M0 0 C1.99954746 -0.04254356 4.00041636 -0.04080783 6 0 C7.66916092 1.66916092 7.18769286 3.73105513 7.24609375 6.0234375 C7.27896484 7.044375 7.31183594 8.0653125 7.34570312 9.1171875 C7.40667807 11.28114935 7.46399693 13.44521745 7.51757812 15.609375 C7.55173828 16.63289063 7.58589844 17.65640625 7.62109375 18.7109375 C7.6461499 19.65243652 7.67120605 20.59393555 7.69702148 21.56396484 C7.84722108 24.25591057 7.84722108 24.25591057 10 27 C10 27.99 10 28.98 10 30 C6.6875 30.25 6.6875 30.25 3 30 C0.65789826 27.76242954 0.04644526 26.38741006 -0.34057617 23.15917969 C-0.32486572 22.09086914 -0.30915527 21.02255859 -0.29296875 19.921875 C-0.2784668 18.18164062 -0.2784668 18.18164062 -0.26367188 16.40625 C-0.23853516 15.1996875 -0.21339844 13.993125 -0.1875 12.75 C-0.17396484 11.52796875 -0.16042969 10.3059375 -0.14648438 9.046875 C-0.1111398 6.03080502 -0.0617956 3.01562513 0 0 Z " fill="#1F36FE" transform="translate(187,22)"/>
    <path d="M0 0 C0.70703125 1.765625 0.70703125 1.765625 1 4 C-0.36328125 5.921875 -0.36328125 5.921875 -2.3125 7.75 C-3.26576172 8.67039062 -3.26576172 8.67039062 -4.23828125 9.609375 C-6 11 -6 11 -8 11 C-8.36334661 3.61195219 -8.36334661 3.61195219 -6.8125 1 C-4.44004321 -0.30894168 -2.6664882 -0.21620175 0 0 Z " fill="#0A103E" transform="translate(38,31)"/>
</svg>
